GIL03_xslow1_RRA_states
nRows=4
nColumns=47

# SIMM Motion File Header:
name GIL03_xslow1_RRA_states
datacolumns 47
datarows 4
otherdata 1
range 0.60250000000000015000 0.60400000000000020000
endheader
time	pelvis_tx	pelvis_ty	pelvis_tz	pelvis_tilt	pelvis_list	pelvis_rotation	hip_flexion_r	hip_adduction_r	hip_rotation_r	knee_angle_r	ankle_angle_r	subtalar_angle_r	mtp_angle_r	hip_flexion_l	hip_adduction_l	hip_rotation_l	knee_angle_l	ankle_angle_l	subtalar_angle_l	mtp_angle_l	lumbar_extension	lumbar_bending	lumbar_rotation	pelvis_tx_u	pelvis_ty_u	pelvis_tz_u	pelvis_tilt_u	pelvis_list_u	pelvis_rotation_u	hip_flexion_r_u	hip_adduction_r_u	hip_rotation_r_u	knee_angle_r_u	ankle_angle_r_u	subtalar_angle_r_u	mtp_angle_r_u	hip_flexion_l_u	hip_adduction_l_u	hip_rotation_l_u	knee_angle_l_u	ankle_angle_l_u	subtalar_angle_l_u	mtp_angle_l_u	lumbar_extension_u	lumbar_bending_u	lumbar_rotation_u
      0.60250000000000015000	      1.63225181816098350000	      0.89485998424494029000	     -0.28505871719487946000	      3.54330181590223430000	     -1.18685909328017790000	     -0.55293139551822967000	     19.42677279841267800000	     -3.37984745848869440000	     -3.57163260484776530000	    -31.41326487992702700000	      7.93711013866454710000	     -0.00000000000000019931	     -0.00000000000000031966	     -5.44034405767516030000	      2.22149989900316090000	      3.01343197685730500000	    -13.13759116680391200000	     13.50980386819886700000	     -0.00000000000003835450	      0.00000000000003604827	    -13.12258960027655500000	      2.37648590367383020000	      0.57627689840690566000	      0.52451652185236575000	     -0.04923643922481025400	     -0.01163066500340280100	     -0.83106995018366925000	     -4.12739357142437590000	     31.86962509324843800000	      7.66670967744850000000	     17.20110161323404400000	     29.93700629329328700000	    186.77071498559289000000	    -31.86324516531831500000	     -0.00000000000000560053	     -0.00000000000001081864	    -44.72086476659919200000	     -9.92835141989939270000	     12.44175517694502300000	     15.32236570917366000000	     20.74888426795192200000	     -0.00000000000016923196	      0.00000000000001315359	      0.81867503087524995000	      9.78587434640057200000	    -31.72935892020239000000
      0.60300000000000020000	      1.63251412275997070000	      0.89483530539543121000	     -0.28506451361473673000	      3.54288724444682130000	     -1.18890698381712930000	     -0.53698590352202358000	     19.43054771173775200000	     -3.37127446056311620000	     -3.55672517976689480000	    -31.31985303625111800000	      7.92113150755484520000	     -0.00000000000000020198	     -0.00000000000000032481	     -5.46268577317236300000	      2.21654348867154600000	      3.01964053935453820000	    -13.12996764768501900000	     13.52018419711788500000	     -0.00000000000003844279	      0.00000000000003606929	    -13.12218130996027700000	      2.38136541933265060000	      0.56040209570253541000	      0.52470171675834598000	     -0.04947886259321285200	     -0.01155432642311319400	     -0.82717796693648937000	     -4.06425222187517490000	     31.91225026616493900000	      7.43318614102506010000	     17.09108202748016200000	     29.69190490206705100000	    186.87587753733192000000	    -32.05083617233794500000	     -0.00000000000000586035	     -0.00000000000000966800	    -44.64592500283567500000	     -9.89739082717691150000	     12.39231238188537200000	     15.17149649456988700000	     20.77241383927993100000	     -0.00000000000017603867	      0.00000000000005378898	      0.81438125337836786000	      9.73206636153481600000	    -31.76953997186683400000
      0.60350000000000015000	      1.63277651972455650000	      0.89481050548513863000	     -0.28507027083449138000	      3.54247468017488340000	     -1.19092342905710890000	     -0.52101923758186497000	     19.43420622049429300000	     -3.36275618273527500000	     -3.54194146878213840000	    -31.22638978281155900000	      7.90505975209035670000	     -0.00000000000000020524	     -0.00000000000000032947	     -5.48498991882348540000	      2.21160240660005990000	      3.02582410728354030000	    -13.12241987425673900000	     13.53057623021527300000	     -0.00000000000003852241	      0.00000000000003606136	    -13.12177532836953000000	      2.38621784812262480000	      0.54450767088770868000	      0.52488599232612809000	     -0.04972066890592200700	     -0.01147386708293111400	     -0.82303255276730936000	     -4.00161227603617940000	     31.95432142393008600000	      7.20107852702576330000	     16.98222492481421500000	     29.44219090357359600000	    186.97635743690475000000	    -32.23572933702247700000	     -0.00000000000000639197	     -0.00000000000000852403	    -44.57060219330005400000	     -9.86703973605781930000	     12.34177787333158300000	     15.01940378495101300000	     20.79563165680890100000	     -0.00000000000015338649	     -0.00000000000005900600	      0.80943140600643160000	      9.67752696631699650000	    -31.80784627452318600000
      0.60400000000000020000	      1.63303900860144640000	      0.89478558483306758000	     -0.28507598679636370000	      3.54206425622422530000	     -1.19290867940116160000	     -0.50503167428880658000	     19.43774902363667000000	     -3.35429203997323460000	     -3.52728374170786910000	    -31.13287746004830200000	      7.88889623656785770000	     -0.00000000000000020839	     -0.00000000000000033351	     -5.50725631507053850000	      2.20667634759621030000	      3.03198213700086770000	    -13.11494844586582100000	     13.54097977289232300000	     -0.00000000000003860026	      0.00000000000003604220	    -13.12137199000701800000	      2.39104282431246990000	      0.52859456249668746000	      0.52506936256248460000	     -0.04996183564748069700	     -0.01138929509873708700	     -0.81862115622509435000	     -3.93947225224340960000	     31.99583938801964700000	      6.97037142019498380000	     16.87454194642839400000	     29.18796013865719300000	    187.07214981211376000000	    -32.41787217122004700000	     -0.00000000000000561976	     -0.00000000000000853696	    -44.49491770652733900000	     -9.83729672148246510000	     12.29016201174786900000	     14.86609947582977000000	     20.81851335706131700000	     -0.00000000000017452813	      0.00000000000001813350	      0.80381284059136016000	      9.62225571359372010000	    -31.84427412184864900000
